# Blender 4.2.3 LTS
# www.blender.org
mtllib cube.mtl
o Cube
v 8.450000 -0.877000 0.000000
v 11.705363 0.877000 0.000000
v -5.123717 0.000000 0.000000
v 8.450000 0.877000 0.000000
v 11.705363 0.000000 0.320317
v 0.000000 0.877000 0.000000
v 8.450000 0.000000 -0.340237
v 11.705363 -0.877000 0.000000
v 11.705363 0.000000 -0.340237
v 0.000000 -0.877000 0.000000
v 8.450000 0.000000 0.320317
v 0.000000 0.000000 -0.340237
v 0.000000 0.000000 0.320317
v 13.262383 0.877000 0.000000
v 13.262383 0.000000 0.400000
v 13.262383 -0.877000 0.000000
v 13.262383 0.000000 -0.340237
v 13.262383 0.000000 0.000000
vn -0.0586 0.3425 0.9377
vn -0.0465 -0.4145 0.9088
vn -0.0618 -0.3610 -0.9305
vn -0.0000 -0.3617 -0.9323
vn -0.0000 0.3617 -0.9323
vn -0.0000 0.3431 0.9393
vn -0.0000 -0.3431 0.9393
vn -0.0618 0.3610 -0.9305
vn -0.0586 -0.3425 0.9377
vn 1.0000 -0.0000 -0.0000
vn -0.0465 0.4145 0.9088
vt 0.750000 0.625000
vt 0.875000 0.625000
vt 0.750000 0.750000
vt 0.750000 0.500000
vt 0.625000 0.500000
vt 0.250000 0.625000
vt 0.375000 0.625000
vt 0.250000 0.750000
vt 0.250000 0.500000
vt 0.375000 0.500000
vt 0.125000 0.500000
vt 0.875000 0.500000
vt 0.125000 0.625000
vt 0.125000 0.750000
vt 0.625000 0.625000
vt 0.625000 0.750000
vt 0.625000 0.250000
vt 0.625000 0.375000
vt 0.500000 0.375000
vt 0.375000 0.375000
vt 0.500000 0.500000
vt 0.500000 0.250000
s 0
usemtl Material
f 13/1/1 6/2/1 3/3/1
f 5/4/2 16/5/2 15/4/2
f 12/6/3 10/7/3 3/8/3
f 7/9/4 8/10/4 1/10/4
f 4/11/5 9/9/5 7/9/5
f 11/4/6 2/12/6 4/12/6
f 1/5/7 5/4/7 11/4/7
f 9/9/4 16/10/4 8/10/4
f 2/11/5 17/9/5 9/9/5
f 6/13/8 12/6/8 3/14/8
f 7/9/5 6/13/5 4/11/5
f 1/10/4 12/6/4 7/9/4
f 5/4/6 14/12/6 2/12/6
f 10/15/9 13/1/9 3/16/9
f 11/4/7 10/15/7 1/5/7
f 4/12/6 13/1/6 11/4/6
f 14/17/10 15/18/10 18/19/10
f 17/20/10 18/19/10 16/10/10
f 18/19/10 15/18/10 16/21/10
f 14/22/10 18/19/10 17/20/10
f 5/4/7 8/5/7 16/5/7
f 7/9/4 9/9/4 8/10/4
f 4/11/5 2/11/5 9/9/5
f 11/4/6 5/4/6 2/12/6
f 1/5/7 8/5/7 5/4/7
f 9/9/4 17/9/4 16/10/4
f 2/11/5 14/11/5 17/9/5
f 7/9/5 12/6/5 6/13/5
f 1/10/4 10/7/4 12/6/4
f 5/4/11 15/4/11 14/12/11
f 11/4/7 13/1/7 10/15/7
f 4/12/6 6/2/6 13/1/6
o Cube.001
v 13.476111 3.269174 0.193246
v 13.488254 -3.246665 0.009913
v 13.828254 0.011255 -0.270087
v 13.828254 0.011255 0.289913
v 13.148253 0.011255 -0.270087
v 13.148253 0.011255 0.289913
v 13.488254 0.011255 0.289913
v 13.488254 0.011255 -0.270087
v 13.148253 0.011255 0.009913
v 13.828254 0.011255 0.009913
vn 0.9946 -0.1038 -0.0000
vn -0.9950 0.1001 -0.0000
vn -0.0000 -0.0856 -0.9963
vn -0.0000 0.0297 0.9996
vn -0.0000 -0.0856 0.9963
vn -0.0000 0.1408 -0.9900
vn -0.9946 -0.1038 -0.0000
vn 0.9942 0.1075 -0.0000
vt 0.500000 0.375000
vt 0.625000 0.375000
vt 0.500000 0.500000
vt 0.500000 0.875000
vt 0.625000 0.875000
vt 0.500000 1.000000
vt 0.250000 0.625000
vt 0.375000 0.750000
vt 0.250000 0.750000
vt 0.750000 0.625000
vt 0.875000 0.750000
vt 0.750000 0.750000
vt 0.625000 0.625000
vt 0.625000 0.500000
vt 0.750000 0.500000
vt 0.875000 0.625000
vt 0.125000 0.625000
vt 0.125000 0.500000
vt 0.250000 0.500000
vt 0.375000 0.625000
vt 0.375000 0.875000
vt 0.375000 1.000000
vt 0.500000 0.750000
vt 0.625000 0.750000
vt 0.375000 0.375000
vt 0.375000 0.500000
vt 0.500000 0.250000
vt 0.625000 0.250000
s 0
usemtl Material.001
f 28/23/12 22/24/12 20/25/12
f 27/26/13 24/27/13 19/28/13
f 26/29/14 20/30/14 23/31/14
f 25/32/15 19/33/15 24/34/15
f 20/35/16 25/32/16 24/34/16
f 20/36/16 22/37/16 25/32/16
f 22/37/15 19/38/15 25/32/15
f 19/39/17 26/29/17 23/31/17
f 19/40/17 21/41/17 26/29/17
f 21/41/14 20/42/14 26/29/14
f 23/43/13 27/26/13 19/44/13
f 20/45/18 27/26/18 23/43/18
f 20/46/18 24/27/18 27/26/18
f 21/47/12 28/23/12 20/48/12
f 19/49/19 28/23/19 21/47/19
f 19/50/19 22/24/19 28/23/19
o Cylinder
v 17.189989 -0.002316 0.227962
v 13.789989 -0.002316 0.227962
v 17.189989 -0.051999 0.224012
v 13.789989 -0.051999 0.224012
v 17.189989 -0.099774 0.212315
v 13.789989 -0.099774 0.212315
v 17.189989 -0.143803 0.193319
v 13.789989 -0.143803 0.193318
v 17.189989 -0.182395 0.167754
v 13.789989 -0.182395 0.167754
v 17.189989 -0.214066 0.136604
v 13.789989 -0.214066 0.136604
v 17.189989 -0.237600 0.101065
v 13.789989 -0.237600 0.101065
v 17.189989 -0.252092 0.062503
v 13.789989 -0.252092 0.062502
v 17.189989 -0.256986 0.022399
v 13.789989 -0.256986 0.022399
v 17.189989 -0.252092 -0.017704
v 13.789989 -0.252092 -0.017704
v 17.189989 -0.237600 -0.056266
v 13.789989 -0.237600 -0.056267
v 17.189989 -0.214066 -0.091806
v 13.789989 -0.214066 -0.091806
v 17.189989 -0.182395 -0.122956
v 13.789989 -0.182395 -0.122956
v 17.189989 -0.143803 -0.148520
v 13.789989 -0.143803 -0.148520
v 17.189989 -0.099774 -0.167516
v 13.789989 -0.099774 -0.167516
v 17.189989 -0.051999 -0.179214
v 13.789989 -0.051999 -0.179214
v 17.189989 -0.002316 -0.183164
v 13.789989 -0.002316 -0.183164
v 17.189989 0.047368 -0.179214
v 13.789989 0.047368 -0.179214
v 17.189989 0.095142 -0.167516
v 13.789989 0.095142 -0.167516
v 17.189989 0.139171 -0.148520
v 13.789989 0.139171 -0.148520
v 17.189989 0.177763 -0.122956
v 13.789989 0.177763 -0.122956
v 17.189989 0.209435 -0.091806
v 13.789989 0.209435 -0.091806
v 17.189989 0.232969 -0.056266
v 13.789989 0.232969 -0.056267
v 17.189989 0.247461 -0.017704
v 13.789989 0.247461 -0.017704
v 17.189989 0.252354 0.022399
v 13.789989 0.252354 0.022399
v 17.189989 0.247461 0.062503
v 13.789989 0.247461 0.062502
v 17.189989 0.232969 0.101065
v 13.789989 0.232969 0.101065
v 17.189989 0.209435 0.136604
v 13.789989 0.209435 0.136604
v 17.189989 0.177763 0.167754
v 13.789989 0.177763 0.167754
v 17.189989 0.139171 0.193319
v 13.789989 0.139171 0.193318
v 17.189989 0.095142 0.212315
v 13.789989 0.095142 0.212315
v 17.189989 0.047368 0.224012
v 13.789989 0.047368 0.224012
vn -0.0000 -0.0000 1.0000
vn -0.0000 -0.1585 0.9874
vn -0.0000 -0.3171 0.9484
vn -0.0000 -0.4747 0.8801
vn -0.0000 -0.6281 0.7781
vn -0.0000 -0.7703 0.6377
vn -0.0000 -0.8897 0.4566
vn -0.0000 -0.9710 0.2393
vn -0.0000 -1.0000 -0.0000
vn -0.0000 -0.9710 -0.2393
vn -0.0000 -0.8897 -0.4566
vn -0.0000 -0.7703 -0.6377
vn -0.0000 -0.6281 -0.7781
vn -0.0000 -0.4747 -0.8801
vn -0.0000 -0.3171 -0.9484
vn -0.0000 -0.1585 -0.9874
vn -0.0000 -0.0000 -1.0000
vn -0.0000 0.1585 -0.9874
vn -0.0000 0.3171 -0.9484
vn -0.0000 0.4747 -0.8801
vn -0.0000 0.6281 -0.7781
vn -0.0000 0.7703 -0.6377
vn -0.0000 0.8897 -0.4566
vn -0.0000 0.9710 -0.2393
vn -0.0000 1.0000 -0.0000
vn -0.0000 0.9710 0.2393
vn -0.0000 0.8897 0.4566
vn -0.0000 0.7703 0.6377
vn -0.0000 0.6281 0.7781
vn -0.0000 0.4747 0.8801
vn -0.0000 0.3171 0.9484
vn -1.0000 -0.0000 -0.0000
vn -0.0000 0.1585 0.9874
vn 1.0000 -0.0000 -0.0000
vt 1.000000 1.000000
vt 0.968750 0.500000
vt 1.000000 0.500000
vt 0.968750 1.000000
vt 0.937500 0.500000
vt 0.937500 1.000000
vt 0.906250 0.500000
vt 0.906250 1.000000
vt 0.875000 0.500000
vt 0.875000 1.000000
vt 0.843750 0.500000
vt 0.843750 1.000000
vt 0.812500 0.500000
vt 0.812500 1.000000
vt 0.781250 0.500000
vt 0.781250 1.000000
vt 0.750000 0.500000
vt 0.750000 1.000000
vt 0.718750 0.500000
vt 0.718750 1.000000
vt 0.687500 0.500000
vt 0.687500 1.000000
vt 0.656250 0.500000
vt 0.656250 1.000000
vt 0.625000 0.500000
vt 0.625000 1.000000
vt 0.593750 0.500000
vt 0.593750 1.000000
vt 0.562500 0.500000
vt 0.562500 1.000000
vt 0.531250 0.500000
vt 0.531250 1.000000
vt 0.500000 0.500000
vt 0.500000 1.000000
vt 0.468750 0.500000
vt 0.468750 1.000000
vt 0.437500 0.500000
vt 0.437500 1.000000
vt 0.406250 0.500000
vt 0.406250 1.000000
vt 0.375000 0.500000
vt 0.375000 1.000000
vt 0.343750 0.500000
vt 0.343750 1.000000
vt 0.312500 0.500000
vt 0.312500 1.000000
vt 0.281250 0.500000
vt 0.281250 1.000000
vt 0.250000 0.500000
vt 0.250000 1.000000
vt 0.218750 0.500000
vt 0.218750 1.000000
vt 0.187500 0.500000
vt 0.187500 1.000000
vt 0.156250 0.500000
vt 0.156250 1.000000
vt 0.125000 0.500000
vt 0.125000 1.000000
vt 0.093750 0.500000
vt 0.093750 1.000000
vt 0.062500 0.500000
vt 0.158156 0.028269
vt 0.471731 0.158156
vt 0.341844 0.471731
vt 0.062500 1.000000
vt 0.031250 0.500000
vt 0.031250 1.000000
vt 0.000000 0.500000
vt 0.796822 0.014612
vt 0.514612 0.203178
vt 0.703178 0.485388
vt 0.296822 0.485388
vt 0.250000 0.490000
vt 0.203178 0.485388
vt 0.158156 0.471731
vt 0.116663 0.449553
vt 0.080294 0.419706
vt 0.050447 0.383337
vt 0.028269 0.341844
vt 0.014612 0.296822
vt 0.010000 0.250000
vt 0.014612 0.203178
vt 0.028269 0.158156
vt 0.050447 0.116663
vt 0.080294 0.080294
vt 0.116663 0.050447
vt 0.203178 0.014612
vt 0.250000 0.010000
vt 0.296822 0.014612
vt 0.341844 0.028269
vt 0.383337 0.050447
vt 0.419706 0.080294
vt 0.449553 0.116663
vt 0.485388 0.203178
vt 0.490000 0.250000
vt 0.485388 0.296822
vt 0.471731 0.341844
vt 0.449553 0.383337
vt 0.419706 0.419706
vt 0.383337 0.449553
vt 0.000000 1.000000
vt 0.750000 0.490000
vt 0.796822 0.485388
vt 0.841844 0.471731
vt 0.883337 0.449553
vt 0.919706 0.419706
vt 0.949553 0.383337
vt 0.971731 0.341844
vt 0.985388 0.296822
vt 0.990000 0.250000
vt 0.985388 0.203178
vt 0.971731 0.158156
vt 0.949553 0.116663
vt 0.919706 0.080294
vt 0.883337 0.050447
vt 0.841844 0.028269
vt 0.750000 0.010000
vt 0.703178 0.014612
vt 0.658156 0.028269
vt 0.616663 0.050447
vt 0.580294 0.080294
vt 0.550447 0.116663
vt 0.528269 0.158156
vt 0.510000 0.250000
vt 0.514612 0.296822
vt 0.528269 0.341844
vt 0.550447 0.383337
vt 0.580294 0.419706
vt 0.616663 0.449553
vt 0.658156 0.471731
s 1
usemtl Material.002
f 30/51/20 31/52/21 29/53/20
f 32/54/21 33/55/22 31/52/21
f 34/56/22 35/57/23 33/55/22
f 36/58/23 37/59/24 35/57/23
f 38/60/24 39/61/25 37/59/24
f 40/62/25 41/63/26 39/61/25
f 42/64/26 43/65/27 41/63/26
f 44/66/27 45/67/28 43/65/27
f 46/68/28 47/69/29 45/67/28
f 48/70/29 49/71/30 47/69/29
f 50/72/30 51/73/31 49/71/30
f 52/74/31 53/75/32 51/73/31
f 54/76/32 55/77/33 53/75/32
f 56/78/33 57/79/34 55/77/33
f 58/80/34 59/81/35 57/79/34
f 60/82/35 61/83/36 59/81/35
f 62/84/36 63/85/37 61/83/36
f 64/86/37 65/87/38 63/85/37
f 66/88/38 67/89/39 65/87/38
f 68/90/39 69/91/40 67/89/39
f 70/92/40 71/93/41 69/91/40
f 72/94/41 73/95/42 71/93/41
f 74/96/42 75/97/43 73/95/42
f 76/98/43 77/99/44 75/97/43
f 78/100/44 79/101/45 77/99/44
f 80/102/45 81/103/46 79/101/45
f 82/104/46 83/105/47 81/103/46
f 84/106/47 85/107/48 83/105/47
f 86/108/48 87/109/49 85/107/48
f 88/110/49 89/111/50 87/109/49
f 66/112/51 50/113/51 34/114/51
f 90/115/50 91/116/52 89/111/50
f 92/117/52 29/118/20 91/116/52
f 59/119/53 75/120/53 91/121/53
f 30/51/20 32/54/21 31/52/21
f 32/54/21 34/56/22 33/55/22
f 34/56/22 36/58/23 35/57/23
f 36/58/23 38/60/24 37/59/24
f 38/60/24 40/62/25 39/61/25
f 40/62/25 42/64/26 41/63/26
f 42/64/26 44/66/27 43/65/27
f 44/66/27 46/68/28 45/67/28
f 46/68/28 48/70/29 47/69/29
f 48/70/29 50/72/30 49/71/30
f 50/72/30 52/74/31 51/73/31
f 52/74/31 54/76/32 53/75/32
f 54/76/32 56/78/33 55/77/33
f 56/78/33 58/80/34 57/79/34
f 58/80/34 60/82/35 59/81/35
f 60/82/35 62/84/36 61/83/36
f 62/84/36 64/86/37 63/85/37
f 64/86/37 66/88/38 65/87/38
f 66/88/38 68/90/39 67/89/39
f 68/90/39 70/92/40 69/91/40
f 70/92/40 72/94/41 71/93/41
f 72/94/41 74/96/42 73/95/42
f 74/96/42 76/98/43 75/97/43
f 76/98/43 78/100/44 77/99/44
f 78/100/44 80/102/45 79/101/45
f 80/102/45 82/104/46 81/103/46
f 82/104/46 84/106/47 83/105/47
f 84/106/47 86/108/48 85/107/48
f 86/108/48 88/110/49 87/109/49
f 88/110/49 90/115/50 89/111/50
f 34/114/51 32/122/51 30/123/51
f 30/123/51 92/124/51 90/125/51
f 90/125/51 88/126/51 86/127/51
f 86/127/51 84/128/51 82/129/51
f 82/129/51 80/130/51 78/131/51
f 78/131/51 76/132/51 74/133/51
f 74/133/51 72/134/51 70/135/51
f 70/135/51 68/136/51 66/112/51
f 66/112/51 64/137/51 62/138/51
f 62/138/51 60/139/51 58/140/51
f 58/140/51 56/141/51 54/142/51
f 54/142/51 52/143/51 50/113/51
f 50/113/51 48/144/51 46/145/51
f 46/145/51 44/146/51 42/147/51
f 42/147/51 40/148/51 38/149/51
f 38/149/51 36/150/51 34/114/51
f 34/114/51 30/123/51 90/125/51
f 90/125/51 86/127/51 82/129/51
f 82/129/51 78/131/51 74/133/51
f 74/133/51 70/135/51 66/112/51
f 66/112/51 62/138/51 58/140/51
f 58/140/51 54/142/51 50/113/51
f 50/113/51 46/145/51 42/147/51
f 42/147/51 38/149/51 34/114/51
f 34/114/51 90/125/51 82/129/51
f 82/129/51 74/133/51 66/112/51
f 66/112/51 58/140/51 50/113/51
f 50/113/51 42/147/51 34/114/51
f 34/114/51 82/129/51 66/112/51
f 90/115/50 92/117/52 91/116/52
f 92/117/52 30/151/20 29/118/20
f 91/121/53 29/152/53 31/153/53
f 31/153/53 33/154/53 35/155/53
f 35/155/53 37/156/53 39/157/53
f 39/157/53 41/158/53 43/159/53
f 43/159/53 45/160/53 47/161/53
f 47/161/53 49/162/53 51/163/53
f 51/163/53 53/164/53 55/165/53
f 55/165/53 57/166/53 59/119/53
f 59/119/53 61/167/53 63/168/53
f 63/168/53 65/169/53 67/170/53
f 67/170/53 69/171/53 71/172/53
f 71/172/53 73/173/53 75/120/53
f 75/120/53 77/174/53 79/175/53
f 79/175/53 81/176/53 83/177/53
f 83/177/53 85/178/53 87/179/53
f 87/179/53 89/180/53 91/121/53
f 91/121/53 31/153/53 35/155/53
f 35/155/53 39/157/53 43/159/53
f 43/159/53 47/161/53 51/163/53
f 51/163/53 55/165/53 59/119/53
f 59/119/53 63/168/53 67/170/53
f 67/170/53 71/172/53 75/120/53
f 75/120/53 79/175/53 83/177/53
f 83/177/53 87/179/53 91/121/53
f 91/121/53 35/155/53 43/159/53
f 43/159/53 51/163/53 59/119/53
f 59/119/53 67/170/53 75/120/53
f 75/120/53 83/177/53 91/121/53
f 91/121/53 43/159/53 59/119/53
